<?xml version="1.0" encoding="utf-8"?>
<!-- Generator: Adobe Illustrator 22.0.1, SVG Export Plug-In . SVG Version: 6.00 Build 0)  -->
<svg version="1.1" id="Ebene_1" xmlns="http://www.w3.org/2000/svg" xmlns:xlink="http://www.w3.org/1999/xlink" x="0px" y="0px"
	 viewBox="0 0 283.5 283.5" style="enable-background:new 0 0 283.5 283.5;" xml:space="preserve">
<style type="text/css">
	.st0{fill:url(#SVGID_1_);}
	.st1{fill:url(#SVGID_2_);}
	.st2{opacity:0.1;fill:#FFFFFF;}
	.st3{fill:url(#SVGID_3_);}
	.st4{fill:url(#SVGID_4_);}
	.st5{fill:#5B6264;}
	.st6{fill:#FFFFFF;}
	.st7{fill:url(#SVGID_5_);}
	.st8{fill:url(#SVGID_6_);}
	.st9{fill:url(#SVGID_7_);}
	.st10{fill:url(#SVGID_8_);}
	.st11{fill:url(#SVGID_9_);}
	.st12{fill:url(#SVGID_10_);}
	.st13{fill:url(#SVGID_11_);}
</style>
<g>
	<g>
		<linearGradient id="SVGID_1_" gradientUnits="userSpaceOnUse" x1="25.7064" y1="138.3944" x2="238.7291" y2="138.3944">
			<stop  offset="0" style="stop-color:#00375C"/>
			<stop  offset="5.086875e-02" style="stop-color:#093F67"/>
			<stop  offset="0.23" style="stop-color:#235989"/>
			<stop  offset="0.4133" style="stop-color:#386DA3"/>
			<stop  offset="0.6002" style="stop-color:#467BB6"/>
			<stop  offset="0.7928" style="stop-color:#4F83C1"/>
			<stop  offset="1" style="stop-color:#5286C5"/>
		</linearGradient>
		<path class="st0" d="M224.9,141.5c0,1.5-0.5,3-1.5,4l-23,27.8c3.7-1.2,7.6-1.9,11.6-1.9c3.4,0,6.8,0.5,9.9,1.4l13.4-17.4
			c4.4-5.3,4.4-13.5,0-18.8l-30.3-33.2l-5.9,6.7l24.2,27.3C224.4,138.6,224.9,140,224.9,141.5z"/>
		<linearGradient id="SVGID_2_" gradientUnits="userSpaceOnUse" x1="25.7064" y1="219.4254" x2="238.7291" y2="219.4254">
			<stop  offset="0" style="stop-color:#00375C"/>
			<stop  offset="5.086875e-02" style="stop-color:#093F67"/>
			<stop  offset="0.23" style="stop-color:#235989"/>
			<stop  offset="0.4133" style="stop-color:#386DA3"/>
			<stop  offset="0.6002" style="stop-color:#467BB6"/>
			<stop  offset="0.7928" style="stop-color:#4F83C1"/>
			<stop  offset="1" style="stop-color:#5286C5"/>
		</linearGradient>
		<path class="st1" d="M175,204.2l-12.5,15.1c-0.9,1-2.1,1.6-3.3,1.6c-0.6,0-1.2-0.1-1.7-0.4c-1.7-0.8-2.8-2.8-2.8-4.9l1.1-16.7
			h-39.1l-4.8,5.6c-0.7,0.8-1.6,1.2-2.4,1.2c-0.4,0-0.8-0.1-1.3-0.3c-1.3-0.6-2.1-2.1-2.1-3.7V199H48.4l0.1,35.1
			c0,2.8,2,5.1,4.6,5.8l109.8,0c4.3,0,9.4-2.5,12.3-6.1l4.6-6c-3.2-5.5-5.1-12-5.1-18.8C174.6,207.4,174.8,205.8,175,204.2z"/>
		<path class="st2" d="M175,204.2l-12.5,15.1c-0.9,1-2.1,1.6-3.3,1.6c-0.6,0-1.2-0.1-1.7-0.4c-1.7-0.8-2.8-2.8-2.8-4.9l1.1-16.7
			h-39.1l-4.8,5.6c-0.7,0.8-1.6,1.2-2.4,1.2c-0.4,0-0.8-0.1-1.3-0.3c-1.3-0.6-2.1-2.1-2.1-3.7V199H48.4l0.1,35.1
			c0,2.8,2,5.1,4.6,5.8l109.8,0c4.3,0,9.4-2.5,12.3-6.1l4.6-6c-3.2-5.5-5.1-12-5.1-18.8C174.6,207.4,174.8,205.8,175,204.2z"/>
		<linearGradient id="SVGID_3_" gradientUnits="userSpaceOnUse" x1="25.7064" y1="152.0444" x2="238.7291" y2="152.0444">
			<stop  offset="0" style="stop-color:#00375C"/>
			<stop  offset="5.086875e-02" style="stop-color:#093F67"/>
			<stop  offset="0.23" style="stop-color:#235989"/>
			<stop  offset="0.4133" style="stop-color:#386DA3"/>
			<stop  offset="0.6002" style="stop-color:#467BB6"/>
			<stop  offset="0.7928" style="stop-color:#4F83C1"/>
			<stop  offset="1" style="stop-color:#5286C5"/>
		</linearGradient>
		<path class="st3" d="M200.5,173.3l23-27.8c0.9-1.1,1.5-2.5,1.5-4c0-1.5-0.6-3-1.5-4l-24.2-27.3l-11.1,12.7c-0.9,1-2.1,1.6-3.3,1.6
			c-0.6,0-1.2-0.1-1.7-0.4c-1.7-0.8-2.8-2.8-2.8-4.9v-16.7H127l34,38.7c0.7,0.8,1.1,1.9,1.1,3c0,1.1-0.4,2.2-1.1,3l-16.1,18.8
			l30.5,35.7C178,188.3,187.8,177.5,200.5,173.3z"/>
		<path class="st2" d="M200.5,173.3l23-27.8c0.9-1.1,1.5-2.5,1.5-4c0-1.5-0.6-3-1.5-4l-24.2-27.3l-11.1,12.7c-0.9,1-2.1,1.6-3.3,1.6
			c-0.6,0-1.2-0.1-1.7-0.4c-1.7-0.8-2.8-2.8-2.8-4.9v-16.7H127l34,38.7c0.7,0.8,1.1,1.9,1.1,3c0,1.1-0.4,2.2-1.1,3l-16.1,18.8
			l30.5,35.7C178,188.3,187.8,177.5,200.5,173.3z"/>
		<linearGradient id="SVGID_4_" gradientUnits="userSpaceOnUse" x1="25.7064" y1="193.4668" x2="238.7291" y2="193.4668">
			<stop  offset="0" style="stop-color:#00375C"/>
			<stop  offset="5.086875e-02" style="stop-color:#093F67"/>
			<stop  offset="0.23" style="stop-color:#235989"/>
			<stop  offset="0.4133" style="stop-color:#386DA3"/>
			<stop  offset="0.6002" style="stop-color:#467BB6"/>
			<stop  offset="0.7928" style="stop-color:#4F83C1"/>
			<stop  offset="1" style="stop-color:#5286C5"/>
		</linearGradient>
		<path class="st4" d="M154.6,215.6c0,2.2,1.1,4.1,2.8,4.9c0.6,0.3,1.1,0.4,1.7,0.4c1.2,0,2.4-0.6,3.3-1.6l12.5-15.1
			c0.1-0.9,0.2-1.7,0.4-2.6l-30.5-35.7l-28.4,33h39.1L154.6,215.6z"/>
		<path class="st2" d="M154.6,215.6c0,2.2,1.1,4.1,2.8,4.9c0.6,0.3,1.1,0.4,1.7,0.4c1.2,0,2.4-0.6,3.3-1.6l12.5-15.1
			c0.1-0.9,0.2-1.7,0.4-2.6l-30.5-35.7l-28.4,33h39.1L154.6,215.6z"/>
		<path class="st2" d="M154.6,215.6c0,2.2,1.1,4.1,2.8,4.9c0.6,0.3,1.1,0.4,1.7,0.4c1.2,0,2.4-0.6,3.3-1.6l12.5-15.1
			c0.1-0.9,0.2-1.7,0.4-2.6l-30.5-35.7l-28.4,33h39.1L154.6,215.6z"/>
		<path class="st5" d="M218.1,178c-1.9-0.4-3.9-0.6-5.9-0.6c-17,0-30.9,13.5-31.5,30.4c0,0.4-0.1,0.7-0.1,1.1
			c0,4.9,1.1,9.5,3.1,13.7c5.1,10.6,15.9,17.9,28.4,17.9c17.4,0,31.5-14.1,31.5-31.5C243.7,193.6,232.7,180.8,218.1,178z"/>
	</g>
	<path class="st6" d="M219,193.9c-0.4-0.1-1.1-0.2-1.7,0.8l-8.3,11.8l-8-11.8c-0.7-1-2.1-1.7-3.2-1.7h-1.1c-1.4,0-2.5,1.1-2.5,2.5
		l0,28.8c0,1.3,1,2.3,2.3,2.3h0.8c1.3,0,2.3-1,2.3-2.3v-21.7l6.6,9.4c0.7,1,2,1.7,3.2,1.7c1.1,0,2.5-0.7,3.2-1.7l6.6-9.6
		c0.6-0.9,1-2.3,1-3.4l0-3.5C219.9,194.4,219.3,194.1,219,193.9z"/>
	<path class="st6" d="M225.8,193.1H225c-1.3,0-2.3,1-2.3,2.3v29.1c0,1.3,1,2.3,2.3,2.3h0.8c1.3,0,2.3-1,2.3-2.3v-29.1
		C228.1,194.1,227.1,193.1,225.8,193.1z"/>
	<linearGradient id="SVGID_5_" gradientUnits="userSpaceOnUse" x1="25.7064" y1="202.3704" x2="238.7291" y2="202.3704">
		<stop  offset="0" style="stop-color:#00375C"/>
		<stop  offset="5.086875e-02" style="stop-color:#093F67"/>
		<stop  offset="0.23" style="stop-color:#235989"/>
		<stop  offset="0.4133" style="stop-color:#386DA3"/>
		<stop  offset="0.6002" style="stop-color:#467BB6"/>
		<stop  offset="0.7928" style="stop-color:#4F83C1"/>
		<stop  offset="1" style="stop-color:#5286C5"/>
	</linearGradient>
	<path class="st7" d="M106,201.8c0,1.6,0.8,3.1,2.1,3.7c0.4,0.2,0.8,0.3,1.3,0.3c0.9,0,1.8-0.4,2.4-1.2l4.8-5.6H106V201.8z"/>
	<path class="st2" d="M106,201.8c0,1.6,0.8,3.1,2.1,3.7c0.4,0.2,0.8,0.3,1.3,0.3c0.9,0,1.8-0.4,2.4-1.2l4.8-5.6H106V201.8z"/>
	<path class="st2" d="M106,201.8c0,1.6,0.8,3.1,2.1,3.7c0.4,0.2,0.8,0.3,1.3,0.3c0.9,0,1.8-0.4,2.4-1.2l4.8-5.6H106V201.8z"/>
	<linearGradient id="SVGID_6_" gradientUnits="userSpaceOnUse" x1="25.7064" y1="139.8334" x2="238.7291" y2="139.8334">
		<stop  offset="0" style="stop-color:#00375C"/>
		<stop  offset="5.086875e-02" style="stop-color:#093F67"/>
		<stop  offset="0.23" style="stop-color:#235989"/>
		<stop  offset="0.4133" style="stop-color:#386DA3"/>
		<stop  offset="0.6002" style="stop-color:#467BB6"/>
		<stop  offset="0.7928" style="stop-color:#4F83C1"/>
		<stop  offset="1" style="stop-color:#5286C5"/>
	</linearGradient>
	<path class="st8" d="M48.3,131.8c0,3.3,2.7,6,6,6l31.6,0.1c3.3,0,6,2.7,6,6l0,14.4c0,3.3-2.7,6-6,6l-31.5-0.1c-3.3,0-6,2.7-6,6
		l0,7.1h80.3v-17.8c0-2.2,1-4.1,2.7-4.9c1.6-0.8,3.5-0.4,4.8,1.1l8.8,10.3l16.1-18.8c0.7-0.8,1.1-1.9,1.1-3c0-1.1-0.4-2.2-1.1-3
		l-34-38.7H48.4L48.3,131.8z"/>
	<path class="st2" d="M48.3,131.8c0,3.3,2.7,6,6,6l31.6,0.1c3.3,0,6,2.7,6,6l0,14.4c0,3.3-2.7,6-6,6l-31.5-0.1c-3.3,0-6,2.7-6,6
		l0,7.1h80.3v-17.8c0-2.2,1-4.1,2.7-4.9c1.6-0.8,3.5-0.4,4.8,1.1l8.8,10.3l16.1-18.8c0.7-0.8,1.1-1.9,1.1-3c0-1.1-0.4-2.2-1.1-3
		l-34-38.7H48.4L48.3,131.8z"/>
	<path class="st2" d="M48.3,131.8c0,3.3,2.7,6,6,6l31.6,0.1c3.3,0,6,2.7,6,6l0,14.4c0,3.3-2.7,6-6,6l-31.5-0.1c-3.3,0-6,2.7-6,6
		l0,7.1h80.3v-17.8c0-2.2,1-4.1,2.7-4.9c1.6-0.8,3.5-0.4,4.8,1.1l8.8,10.3l16.1-18.8c0.7-0.8,1.1-1.9,1.1-3c0-1.1-0.4-2.2-1.1-3
		l-34-38.7H48.4L48.3,131.8z"/>
	<linearGradient id="SVGID_7_" gradientUnits="userSpaceOnUse" x1="25.7064" y1="194.1725" x2="238.7291" y2="194.1725">
		<stop  offset="0" style="stop-color:#00375C"/>
		<stop  offset="5.086875e-02" style="stop-color:#093F67"/>
		<stop  offset="0.23" style="stop-color:#235989"/>
		<stop  offset="0.4133" style="stop-color:#386DA3"/>
		<stop  offset="0.6002" style="stop-color:#467BB6"/>
		<stop  offset="0.7928" style="stop-color:#4F83C1"/>
		<stop  offset="1" style="stop-color:#5286C5"/>
	</linearGradient>
	<polygon class="st9" points="48.4,189.4 48.4,199 106,199 106,189.4 	"/>
	<polygon class="st2" points="48.4,189.4 48.4,199 106,199 106,189.4 	"/>
	<polygon class="st2" points="48.4,189.4 48.4,199 106,199 106,189.4 	"/>
	<linearGradient id="SVGID_8_" gradientUnits="userSpaceOnUse" x1="25.7064" y1="176.5237" x2="238.7291" y2="176.5237">
		<stop  offset="0" style="stop-color:#00375C"/>
		<stop  offset="5.086875e-02" style="stop-color:#093F67"/>
		<stop  offset="0.23" style="stop-color:#235989"/>
		<stop  offset="0.4133" style="stop-color:#386DA3"/>
		<stop  offset="0.6002" style="stop-color:#467BB6"/>
		<stop  offset="0.7928" style="stop-color:#4F83C1"/>
		<stop  offset="1" style="stop-color:#5286C5"/>
	</linearGradient>
	<path class="st10" d="M136.1,155.6c-1.3-1.5-3.2-2-4.8-1.1c-1.6,0.8-2.7,2.8-2.7,4.9v17.8H48.4l0,12.1H106v9.6h10.5l28.4-33
		L136.1,155.6z"/>
	<path class="st2" d="M136.1,155.6c-1.3-1.5-3.2-2-4.8-1.1c-1.6,0.8-2.7,2.8-2.7,4.9v17.8H48.4l0,12.1H106v9.6h10.5l28.4-33
		L136.1,155.6z"/>
	<path class="st2" d="M136.1,155.6c-1.3-1.5-3.2-2-4.8-1.1c-1.6,0.8-2.7,2.8-2.7,4.9v17.8H48.4l0,12.1H106v9.6h10.5l28.4-33
		L136.1,155.6z"/>
	<path class="st2" d="M136.1,155.6c-1.3-1.5-3.2-2-4.8-1.1c-1.6,0.8-2.7,2.8-2.7,4.9v17.8H48.4l0,12.1H106v9.6h10.5l28.4-33
		L136.1,155.6z"/>
	<polygon class="st2" points="134.3,54.2 134.2,54.2 134.2,54.2 	"/>
	<linearGradient id="SVGID_9_" gradientUnits="userSpaceOnUse" x1="25.7064" y1="76.5587" x2="238.7291" y2="76.5587">
		<stop  offset="0" style="stop-color:#00375C"/>
		<stop  offset="5.086875e-02" style="stop-color:#093F67"/>
		<stop  offset="0.23" style="stop-color:#235989"/>
		<stop  offset="0.4133" style="stop-color:#386DA3"/>
		<stop  offset="0.6002" style="stop-color:#467BB6"/>
		<stop  offset="0.7928" style="stop-color:#4F83C1"/>
		<stop  offset="1" style="stop-color:#5286C5"/>
	</linearGradient>
	<path class="st11" d="M134.2,63.7c0,3.3-2.7,6-6,6l-73.8-0.1c-3.3,0-6,2.7-6,6l0,5.2h98.2l-0.5-17.8c0-2.2,1.1-4.1,2.8-4.9
		c1.7-0.8,3.7-0.4,5.1,1.1l45.2,51.1l5.9-6.7l-49.4-54c-2.1-2.1-5.6-6.5-12.5-6.5c-5.2,0-9,3.9-9,11.2l0,0L134.2,63.7z"/>
	<path class="st2" d="M134.2,63.7c0,3.3-2.7,6-6,6l-73.8-0.1c-3.3,0-6,2.7-6,6l0,5.2h98.2l-0.5-17.8c0-2.2,1.1-4.1,2.8-4.9
		c1.7-0.8,3.7-0.4,5.1,1.1l45.2,51.1l5.9-6.7l-49.4-54c-1.2-1.2-5.3-6.5-12.5-6.5c-5.2,0-9,3.9-9,11.2l0,0L134.2,63.7z"/>
	<linearGradient id="SVGID_10_" gradientUnits="userSpaceOnUse" x1="25.7064" y1="90.992" x2="238.7291" y2="90.992">
		<stop  offset="0" style="stop-color:#00375C"/>
		<stop  offset="5.086875e-02" style="stop-color:#093F67"/>
		<stop  offset="0.23" style="stop-color:#235989"/>
		<stop  offset="0.4133" style="stop-color:#386DA3"/>
		<stop  offset="0.6002" style="stop-color:#467BB6"/>
		<stop  offset="0.7928" style="stop-color:#4F83C1"/>
		<stop  offset="1" style="stop-color:#5286C5"/>
	</linearGradient>
	<path class="st12" d="M149,57.9c-1.7,0.8-2.8,2.8-2.8,4.9l0.5,17.8H48.4l0,20.5H106V87.9c0-1.6,0.8-3.1,2-3.7
		c1.2-0.6,2.7-0.3,3.7,0.8l15.3,17.4h53.2v16.7c0,2.2,1.1,4.1,2.8,4.9c0.6,0.3,1.1,0.4,1.7,0.4c1.2,0,2.4-0.6,3.3-1.6l11.1-12.7
		L154,59.1C152.7,57.6,150.7,57.1,149,57.9z"/>
	<path class="st2" d="M149,57.9c-1.7,0.8-2.8,2.8-2.8,4.9l0.5,17.8H48.4l0,20.5H106V87.9c0-1.6,0.8-3.1,2-3.7
		c1.2-0.6,2.7-0.3,3.7,0.8l15.3,17.4h53.2v16.7c0,2.2,1.1,4.1,2.8,4.9c0.6,0.3,1.1,0.4,1.7,0.4c1.2,0,2.4-0.6,3.3-1.6l11.1-12.7
		L154,59.1C152.7,57.6,150.7,57.1,149,57.9z"/>
	<path class="st2" d="M149,57.9c-1.7,0.8-2.8,2.8-2.8,4.9l0.5,17.8H48.4l0,20.5H106V87.9c0-1.6,0.8-3.1,2-3.7
		c1.2-0.6,2.7-0.3,3.7,0.8l15.3,17.4h53.2v16.7c0,2.2,1.1,4.1,2.8,4.9c0.6,0.3,1.1,0.4,1.7,0.4c1.2,0,2.4-0.6,3.3-1.6l11.1-12.7
		L154,59.1C152.7,57.6,150.7,57.1,149,57.9z"/>
	<linearGradient id="SVGID_11_" gradientUnits="userSpaceOnUse" x1="25.7064" y1="93.1857" x2="238.7291" y2="93.1857">
		<stop  offset="0" style="stop-color:#00375C"/>
		<stop  offset="5.086875e-02" style="stop-color:#093F67"/>
		<stop  offset="0.23" style="stop-color:#235989"/>
		<stop  offset="0.4133" style="stop-color:#386DA3"/>
		<stop  offset="0.6002" style="stop-color:#467BB6"/>
		<stop  offset="0.7928" style="stop-color:#4F83C1"/>
		<stop  offset="1" style="stop-color:#5286C5"/>
	</linearGradient>
	<path class="st13" d="M127,102.5l-15.3-17.4c-1-1.1-2.4-1.5-3.7-0.8c-1.2,0.6-2,2.1-2,3.7v13.3H48.4l0,1.3H127z"/>
	<path class="st2" d="M127,102.5l-15.3-17.4c-1-1.1-2.4-1.5-3.7-0.8c-1.2,0.6-2,2.1-2,3.7v13.3H48.4l0,1.3H127z"/>
	<path class="st2" d="M127,102.5l-15.3-17.4c-1-1.1-2.4-1.5-3.7-0.8c-1.2,0.6-2,2.1-2,3.7v13.3H48.4l0,1.3H127z"/>
	<path class="st2" d="M127,102.5l-15.3-17.4c-1-1.1-2.4-1.5-3.7-0.8c-1.2,0.6-2,2.1-2,3.7v13.3H48.4l0,1.3H127z"/>
</g>
</svg>
